<svg xmlns="http://www.w3.org/2000/svg" width="900" height="480" viewBox="0 0 900 480">
<defs>
 <linearGradient id="bg" x1="0" y1="0" x2="1" y2="1"><stop offset="0" stop-color="#07191a"/><stop offset="1" stop-color="#021011"/></linearGradient>
 <linearGradient id="kg" x1="0" y1="0" x2="0" y2="1"><stop offset="0" stop-color="#caff69"/><stop offset="1" stop-color="#6ba92f"/></linearGradient>
 <filter id="glow"><feGaussianBlur stdDeviation="9" result="b"/><feMerge><feMergeNode in="b"/><feMergeNode in="SourceGraphic"/></feMerge></filter>
 <pattern id="grid" width="54" height="54" patternUnits="userSpaceOnUse"><path d="M54 0H0V54" fill="none" stroke="#6ea67b" stroke-opacity=".08" stroke-width="1"/></pattern>
</defs>
<rect width="900" height="480" rx="36" fill="url(#bg)"/>
<rect width="900" height="480" rx="36" fill="url(#grid)"/>
<path d="M20 170 C150 90 260 120 360 74 S560 90 690 44 S830 78 890 40" fill="none" stroke="#86a78f" stroke-opacity=".15" stroke-width="2"/>
<path d="M8 330 C160 270 270 310 390 250 S590 270 700 215 S815 225 905 190" fill="none" stroke="#86a78f" stroke-opacity=".12" stroke-width="2"/>
<path d="M170 0 C130 100 180 180 120 260 S90 400 130 480" fill="none" stroke="#86a78f" stroke-opacity=".10" stroke-width="2"/>
<path d="M660 0 C630 90 680 160 620 250 S610 390 650 480" fill="none" stroke="#86a78f" stroke-opacity=".11" stroke-width="2"/>
<polygon points="164.6,150.0 181.0,109.7 229.2,96.7 349.5,128.4 360.9,74.1 402.5,55.0 506.7,93.7 533.3,83.6 654.6,86.1 763.2,95.7 799.9,128.8 845.0,142.3 834.7,163.1 719.4,213.0 693.3,249.5 599.4,260.5 571.8,319.3 494.3,306.9 443.7,324.9 373.9,368.4 384.0,390.0 363.1,411.0 224.8,425.0 134.3,395.1 55.0,402.2 61.9,349.2 141.6,364.6 168.4,336.2 224.0,345.2 317.8,278.9 231.0,230.4 178.9,253.4 124.9,218.7 186.3,159.1 164.6,150.0" fill="#9ef34e" fill-opacity=".20" stroke="#aaf85c" stroke-width="18" stroke-opacity=".18" filter="url(#glow)"/>
<polygon points="164.6,150.0 181.0,109.7 229.2,96.7 349.5,128.4 360.9,74.1 402.5,55.0 506.7,93.7 533.3,83.6 654.6,86.1 763.2,95.7 799.9,128.8 845.0,142.3 834.7,163.1 719.4,213.0 693.3,249.5 599.4,260.5 571.8,319.3 494.3,306.9 443.7,324.9 373.9,368.4 384.0,390.0 363.1,411.0 224.8,425.0 134.3,395.1 55.0,402.2 61.9,349.2 141.6,364.6 168.4,336.2 224.0,345.2 317.8,278.9 231.0,230.4 178.9,253.4 124.9,218.7 186.3,159.1 164.6,150.0" fill="url(#kg)" fill-opacity=".92" stroke="#d4ff87" stroke-width="3"/>
<circle cx="495" cy="162" r="7" fill="#efffc8"/><circle cx="495" cy="162" r="22" fill="#b9ff58" fill-opacity=".18"/>
<path d="M495 154c-13 0-23 10-23 23 0 18 23 39 23 39s23-21 23-39c0-13-10-23-23-23zm0 31a8 8 0 1 1 0-16 8 8 0 0 1 0 16z" fill="#122317" stroke="#d5ff82" stroke-width="2"/>
</svg>